{"title":"Johnny.Guitar.1954.BR.900p.OAR.x264.AC3.[FrOnkY]","uid":9692804,"size":5854880742,"categoryP":"video","categoryS":"hd___movies","magnet":"?xt=urn:btih:2e689f8d134060b68c1e5c12a6a87608cf724794&amp;dn=Johnny.Guitar.1954.BR.900p.OAR.x264.AC3.%5BFrOnkY%5D&amp;tr=udp%3A%2F%2Ftracker.openbittorrent.com%3A80&amp;tr=udp%3A%2F%2Fopen.demonii.com%3A1337&amp;tr=udp%3A%2F%2Ftracker.coppersurfer.tk%3A6969&amp;tr=udp%3A%2F%2Fexodus.desync.com%3A6969","seeders":0,"leechers":1,"uploader":"HDmEntEs","files":-1,"time":1393895165,"description":"Legendary... Unusual Western\n\n\nJohnny.Guitar.1954.BR.900p.OAR.x264.AC3.[FrOnkY].mkv\n\nFormat                                   : Matroska\nFormat version                           : Version 2\nFile size                                : 5.45 GiB\nDuration                                 : 1h 50mn\nOverall bit rate                         : 7 070 Kbps\nWriting application                      : mkvmerge v5.8.0 ('No Sleep / Pillow') built on Sep  2 2012 15:37:04\nWriting library                          : libebml v1.2.3 + libmatroska v1.3.0\nAttachment                               : Yes / Yes / Yes\n\nVideo\nID                                       : 1\nFormat                                   : AVC\nFormat/Info                              : Advanced Video Codec\nFormat profile                           : &lt;a class=&quot;__cf_email__&quot; href=&quot;/cdn-cgi/l/email-protection&quot; data-cfemail=&quot;91d9f8f6f9d1dda5bfa0&quot;&gt;[email&amp;#160;protected]&lt;/a&gt;&lt;script cf-hash='f9e31' type=&quot;text/javascript&quot;&gt;\n/* &lt;![CDATA[ */!function(){try{var t=&quot;currentScript&quot;in document?document.currentScript:function(){for(var t=document.getElementsByTagName(&quot;script&quot;),e=t.length;e--;)if(t[e].getAttribute(&quot;cf-hash&quot;))return t[e]}();if(t&amp;&amp;t.previousSibling){var e,r,n,i,c=t.previousSibling,a=c.getAttribute(&quot;data-cfemail&quot;);if(a){for(e=&quot;&quot;,r=parseInt(a.substr(0,2),16),n=2;a.length-n;n+=2)i=parseInt(a.substr(n,2),16)^r,e+=String.fromCharCode(i);e=document.createTextNode(e),c.parentNode.replaceChild(e,c)}}}catch(u){}}();/* ]]&gt; */&lt;/script&gt;\nFormat settings, CABAC                   : Yes\nFormat settings, ReFrames                : 6 frames\nCodec ID                                 : V_MPEG4/ISO/AVC\nDuration                                 : 1h 50mn\nBit rate                                 : 6 556 Kbps\nWidth                                    : 1 456 pixels\nHeight                                   : 900 pixels\nDisplay aspect ratio                     : 1.618\nFrame rate mode                          : Constant\nFrame rate                               : 23.976 fps\nColor space                              : YUV\nChroma subsampling                       : 4:2:0\nBit depth                                : 8 bits\nScan type                                : Progressive\nBits/(Pixel*Frame)                       : 0.209\nStream size                              : 4.95 GiB (91%)\nWriting library                          : x264 core 129 r2230 1cffe9f\nLanguage                                 : English\nDefault                                  : Yes\nForced                                   : No\n\nAudio #1\nID                                       : 2\nFormat                                   : AC-3\nFormat/Info                              : Audio Coding 3\nMode extension                           : CM (complete main)\nFormat settings, Endianness              : Big\nCodec ID                                 : A_AC3\nDuration                                 : 1h 50mn\nBit rate mode                            : Constant\nBit rate                                 : 192 Kbps\nChannel(s)                               : 2 channels\nChannel positions                        : Front: L R\nSampling rate                            : 48.0 KHz\nBit depth                                : 16 bits\nStream size                              : 152 MiB (3%)\nLanguage                                 : Spanish\nDefault                                  : Yes\nForced                                   : No\n\nAudio #2\nID                                       : 3\nFormat                                   : AC-3\nFormat/Info                              : Audio Coding 3\nMode extension                           : CM (complete main)\nFormat settings, Endianness              : Big\nCodec ID                                 : A_AC3\nDuration                                 : 1h 50mn\nBit rate mode                            : Constant\nBit rate                                 : 320 Kbps\nChannel(s)                               : 1 channel\nChannel positions                        : Front: C\nSampling rate                            : 48.0 KHz\nBit depth                                : 16 bits\nStream size                              : 253 MiB (5%)\nLanguage                                 : English\nDefault                                  : No\nForced                                   : No\n\nText #1\nID                                       : 4\nFormat                                   : UTF-8\nCodec ID                                 : S_TEXT/UTF8\nCodec ID/Info                            : UTF-8 Plain Text\nTitle                                    : for\nLanguage                                 : Spanish\nDefault                                  : Yes\nForced                                   : No\n\nText #2\nID                                       : 5\nFormat                                   : UTF-8\nCodec ID                                 : S_TEXT/UTF8\nCodec ID/Info                            : UTF-8 Plain Text\nLanguage                                 : Spanish\nDefault                                  : No\nForced                                   : No\n\nText #3\nID                                       : 6\nFormat                                   : UTF-8\nCodec ID                                 : S_TEXT/UTF8\nCodec ID/Info                            : UTF-8 Plain Text\nLanguage                                 : English\nDefault                                  : No\nForced                                   : No\n\nText #4\nID                                       : 7\nFormat                                   : UTF-8\nCodec ID                                 : S_TEXT/UTF8\nCodec ID/Info                            : UTF-8 Plain Text\nLanguage                                 : French\nDefault                                  : No\nForced                                   : No\n\nMenu\n00:00:00.000                             : en:Chapter 01\n00:03:56.435                             : en:Chapter 02\n00:08:51.272                             : en:Chapter 03\n00:15:30.796                             : en:Chapter 04\n00:23:14.135                             : en:Chapter 05\n00:28:26.989                             : en:Chapter 06\n00:33:24.745                             : en:Chapter 07\n00:37:54.390                             : en:Chapter 08\n00:42:13.441                             : en:Chapter 09\n00:49:06.270                             : en:Chapter 10\n00:54:18.374                             : en:Chapter 11\n01:03:08.404                             : en:Chapter 12\n01:10:27.677                             : en:Chapter 13\n01:22:09.378                             : en:Chapter 14\n01:30:12.820                             : en:Chapter 15\n01:37:48.067                             : en:Chapter 16\n01:43:50.721                             : en:Chapter 17\n\n\nSCREENS\n &lt;a href=&quot;\nhttp://box.jisko.net/i/38d50754.png&quot; rel=&quot;nofollow&quot; target=&quot;_NEW&quot;&gt;\nhttp://box.jisko.net/i/38d50754.png&lt;/a&gt;\n &lt;a href=&quot;\nhttp://box.jisko.net/i/8a6d0752.png&quot; rel=&quot;nofollow&quot; target=&quot;_NEW&quot;&gt;\nhttp://box.jisko.net/i/8a6d0752.png&lt;/a&gt;\n &lt;a href=&quot;\nhttp://box.jisko.net/i/c981f1ca.png&quot; rel=&quot;nofollow&quot; target=&quot;_NEW&quot;&gt;\nhttp://box.jisko.net/i/c981f1ca.png&lt;/a&gt;\n &lt;a href=&quot;\nhttp://box.jisko.net/i/0f6f1db5.png&quot; rel=&quot;nofollow&quot; target=&quot;_NEW&quot;&gt;\nhttp://box.jisko.net/i/0f6f1db5.png&lt;/a&gt;\n &lt;a href=&quot;\nhttp://box.jisko.net/i/eaf26c0e.png&quot; rel=&quot;nofollow&quot; target=&quot;_NEW&quot;&gt;\nhttp://box.jisko.net/i/eaf26c0e.png&lt;/a&gt;\n\nDVD - BluRay - OAR\n &lt;a href=&quot;\nhttp://box.jisko.net/i/44fbdeaf.png&quot; rel=&quot;nofollow&quot; target=&quot;_NEW&quot;&gt;\nhttp://box.jisko.net/i/44fbdeaf.png&lt;/a&gt; &lt;a href=&quot;\nhttp://box.jisko.net/i/c0877fc3.png&quot; rel=&quot;nofollow&quot; target=&quot;_NEW&quot;&gt;\nhttp://box.jisko.net/i/c0877fc3.png&lt;/a&gt; &lt;a href=&quot;\nhttp://box.jisko.net/i/d683b594.png&quot; rel=&quot;nofollow&quot; target=&quot;_NEW&quot;&gt;\nhttp://box.jisko.net/i/d683b594.png&lt;/a&gt;","torrent":{"xt":"urn:btih:2e689f8d134060b68c1e5c12a6a87608cf724794","amp;dn":"Johnny.Guitar.1954.BR.900p.OAR.x264.AC3.%5BFrOnkY%5D","amp;tr":["udp%3A%2F%2Ftracker.openbittorrent.com%3A80","udp%3A%2F%2Fopen.demonii.com%3A1337","udp%3A%2F%2Ftracker.coppersurfer.tk%3A6969","udp%3A%2F%2Fexodus.desync.com%3A6969"],"infoHash":"2e689f8d134060b68c1e5c12a6a87608cf724794","infoHashBuffer":{"type":"Buffer","data":[46,104,159,141,19,64,96,182,140,30,92,18,166,168,118,8,207,114,71,148]},"announce":[],"urlList":[]}}